<svg id="Layer_1" enable-background="new 0 0 512 512" height="512" viewBox="0 0 512 512" width="512" xmlns="http://www.w3.org/2000/svg"><g><g><path d="m256.114 177c-3.71 0-7.42-1.369-10.312-4.107l-72.886-69c-4.46-4.222-5.896-10.736-3.623-16.442s7.794-9.451 13.936-9.451h22v-63c0-8.284 6.716-15 15-15h71.771c8.284 0 15 6.716 15 15v63h22c6.142 0 11.663 3.744 13.936 9.45s.837 12.221-3.623 16.442l-72.886 69c-2.893 2.739-6.603 4.108-10.313 4.108z" fill="#7d0"/></g><g><path d="m386.004 512h-260.077c-21.7 0-40.136-13.293-45.875-33.079l-2.411-8.311c-21.048-72.57-42.813-147.612-64.057-221.464-1.302-4.528-.402-9.405 2.432-13.168 2.835-3.764 7.273-5.978 11.984-5.978h456c4.717 0 9.159 2.219 11.992 5.99s3.728 8.655 2.415 13.186c-21.793 75.191-44.327 152.944-66.518 229.708-5.725 19.807-24.164 33.116-45.885 33.116z" fill="#fdbf00"/></g><path d="m495.992 235.99c-2.833-3.771-7.275-5.99-11.992-5.99h-228v282h130.004c21.721 0 40.16-13.309 45.886-33.116 22.19-76.765 44.725-154.517 66.518-229.708 1.312-4.531.417-9.415-2.416-13.186z" fill="#ff8856"/><g clip-rule="evenodd" fill-rule="evenodd"><path d="m15 284.75h482c8.284 0 15-6.716 15-15v-43.001c0-8.284-6.716-15-15-15h-482c-8.284 0-15 6.716-15 15v43.001c0 8.284 6.716 15 15 15z" fill="#ffde46"/><path d="m497 211.749h-241v73.001h241c8.284 0 15-6.716 15-15v-43.001c0-8.284-6.716-15-15-15z" fill="#ffcd00"/><path d="m21.75 365c11.667 11.668 30.759 11.668 42.426 0l101.824-101.823c11.667-11.667 11.667-30.759 0-42.426-11.667-11.667-30.759-11.667-42.426 0l-101.824 101.823c-11.668 11.667-11.668 30.759 0 42.426z" fill="#0040a0"/><path d="m490.25 365c-11.667 11.668-30.759 11.668-42.426 0l-101.824-101.823c-11.667-11.667-11.667-30.759 0-42.426 11.667-11.667 30.759-11.667 42.426 0l101.824 101.823c11.668 11.667 11.668 30.759 0 42.426z" fill="#00215a"/></g><g><path d="m172.09 470c-7.332 0-13.743-5.381-14.826-12.851l-14.633-100.969c-1.188-8.199 4.495-15.808 12.693-16.996 8.202-1.188 15.808 4.496 16.996 12.693l14.633 100.969c1.188 8.198-4.495 15.808-12.693 16.996-.729.107-1.454.158-2.17.158z" fill="#ffde46"/></g><g><path d="m256 469.998c-8.284 0-15-6.716-15-15v-100.969c0-8.284 6.716-15 15-15 8.285 0 15 6.716 15 15v100.969c0 8.284-6.716 15-15 15z" fill="#ffde46"/></g><g><path d="m339.722 470c-.716 0-1.44-.051-2.17-.157-8.198-1.188-13.882-8.797-12.693-16.996l14.633-100.969c1.188-8.198 8.798-13.883 16.996-12.693 8.198 1.188 13.882 8.798 12.693 16.996l-14.633 100.969c-1.082 7.468-7.494 12.85-14.826 12.85z" fill="#ffcd00"/></g><path d="m256 339.029v130.969c8.285 0 15-6.716 15-15v-100.969c0-8.284-6.715-15-15-15z" fill="#ffcd00"/><path d="m342.936 87.45c-2.273-5.706-7.794-9.45-13.936-9.45h-22v-63c0-8.284-6.716-15-15-15h-35.886v177c3.71 0 7.42-1.369 10.313-4.107l72.886-69c4.459-4.222 5.895-10.737 3.623-16.443z" fill="#00ab5e"/></g></svg>